<svg xmlns="http://www.w3.org/2000/svg" xmlns:xlink="http://www.w3.org/1999/xlink" width="500" zoomAndPan="magnify" viewBox="0 0 375 374.999991" height="500" preserveAspectRatio="xMidYMid meet" version="1.0"><defs><clipPath id="id1"><path d="M 132 75 L 275 75 L 275 216 L 132 216 Z M 132 75 " clip-rule="nonzero"/></clipPath><clipPath id="id2"><path d="M 154.238281 56.195312 L 289.707031 100.402344 L 243.171875 243.003906 L 107.703125 198.792969 Z M 154.238281 56.195312 " clip-rule="nonzero"/></clipPath><clipPath id="id3"><path d="M 154.238281 56.195312 L 289.707031 100.402344 L 243.171875 243.003906 L 107.703125 198.792969 Z M 154.238281 56.195312 " clip-rule="nonzero"/></clipPath><clipPath id="id4"><path d="M 129 69 L 279 69 L 279 221 L 129 221 Z M 129 69 " clip-rule="nonzero"/></clipPath><clipPath id="id5"><path d="M 154.238281 56.195312 L 289.707031 100.402344 L 243.171875 243.003906 L 107.703125 198.792969 Z M 154.238281 56.195312 " clip-rule="nonzero"/></clipPath><clipPath id="id6"><path d="M 154.238281 56.195312 L 289.707031 100.402344 L 243.171875 243.003906 L 107.703125 198.792969 Z M 154.238281 56.195312 " clip-rule="nonzero"/></clipPath><clipPath id="id7"><path d="M 103 15 L 219 15 L 219 168 L 103 168 Z M 103 15 " clip-rule="nonzero"/></clipPath><clipPath id="id8"><path d="M 82.472656 55.277344 L 214.882812 13.816406 L 254.773438 141.21875 L 122.363281 182.679688 Z M 82.472656 55.277344 " clip-rule="nonzero"/></clipPath><clipPath id="id9"><path d="M 82.472656 55.277344 L 214.882812 13.816406 L 254.773438 141.21875 L 122.363281 182.679688 Z M 82.472656 55.277344 " clip-rule="nonzero"/></clipPath></defs><rect x="-37.5" width="450" fill="#ffffff" y="-37.499999" height="449.999989" fill-opacity="1"/><rect x="-37.5" width="450" fill="#ffffff" y="-37.499999" height="449.999989" fill-opacity="1"/><rect x="-37.5" width="450" fill="#ffffff" y="-37.499999" height="449.999989" fill-opacity="1"/><rect x="-37.5" width="450" fill="#ffffff" y="-37.499999" height="449.999989" fill-opacity="1"/><g clip-path="url(#id1)"><g clip-path="url(#id2)"><g clip-path="url(#id3)"><path fill="#8fb996" d="M 225.785156 84.046875 L 225.421875 84.042969 C 224.316406 84.285156 222.113281 86.589844 218.824219 90.949219 C 215.835938 95.3125 207.816406 109.011719 194.765625 132.046875 C 191.867188 135.421875 189.917969 136.949219 188.917969 136.621094 C 188.875 136.605469 188.828125 136.589844 188.789062 136.566406 C 188.734375 136.574219 188.683594 136.574219 188.640625 136.558594 C 188.160156 136.402344 188.039062 134.921875 188.273438 132.117188 L 196.855469 80 C 196.738281 78.394531 196.328125 77.472656 195.613281 77.238281 C 195.613281 77.238281 195.609375 77.238281 195.605469 77.238281 C 195.21875 76.644531 194.707031 76.242188 194.070312 76.035156 L 193.929688 75.992188 C 192.582031 75.578125 191.042969 76.390625 189.308594 78.425781 C 187.703125 80.433594 186.398438 83.050781 185.398438 86.273438 C 184.277344 89.890625 183.1875 94.132812 182.128906 99 L 176.203125 127.683594 C 176.160156 127.945312 176.117188 128.203125 176.074219 128.460938 C 175.914062 128.960938 175.753906 129.457031 175.59375 129.949219 C 174.488281 133.410156 173.542969 136.0625 172.761719 137.90625 C 171.84375 139.417969 170.808594 141.089844 169.648438 142.925781 C 168.871094 145.066406 167.765625 147.914062 166.335938 151.46875 C 166.089844 151.96875 165.839844 152.429688 165.574219 152.855469 C 164.5625 154.707031 162.929688 156.078125 160.675781 156.960938 L 160.671875 156.960938 C 159.097656 157.175781 157.632812 157.058594 156.277344 156.617188 C 155.386719 156.328125 154.542969 155.894531 153.75 155.320312 C 151.796875 153.667969 149.925781 151.578125 148.136719 149.050781 C 147.039062 147.507812 145.859375 145.261719 144.59375 142.308594 L 141.429688 138.429688 C 140.769531 138.113281 140.148438 137.855469 139.5625 137.664062 C 136.382812 136.628906 134.238281 137.460938 133.128906 140.164062 C 132.609375 141.710938 132.671875 143.894531 133.3125 146.710938 L 140.921875 165.800781 L 153.128906 199.816406 C 159.160156 207.191406 165.445312 211.945312 171.988281 214.082031 C 174.648438 214.949219 177.351562 215.382812 180.09375 215.386719 L 191.921875 215.546875 C 195.574219 215.324219 199.527344 213.503906 203.773438 210.085938 C 208.070312 206.347656 211.429688 202.804688 213.84375 199.449219 C 214.296875 199.3125 217.980469 191.386719 224.890625 175.671875 C 226.164062 173.113281 228.332031 170.015625 231.394531 166.382812 C 232.46875 165.035156 235.476562 162.492188 240.421875 158.753906 C 251.398438 151.988281 261.128906 145.632812 269.601562 139.691406 C 270.832031 138.945312 272.316406 136.898438 274.058594 133.542969 C 274.683594 132.03125 274.429688 131.089844 273.292969 130.714844 C 271.738281 130.210938 268.539062 130.765625 263.695312 132.382812 C 255.46875 135.8125 243.515625 142.125 227.832031 151.320312 C 225.921875 152.019531 224.671875 152.269531 224.082031 152.078125 C 223.90625 152.019531 223.789062 151.921875 223.730469 151.789062 C 222.804688 151.367188 223.84375 149.046875 226.84375 144.824219 C 246.191406 123.929688 255.800781 112.851562 255.675781 111.589844 C 259.074219 105.898438 259.285156 102.566406 256.3125 101.597656 C 255.75 101.414062 255.070312 101.3125 254.28125 101.300781 C 249.863281 102.5625 245.859375 105.039062 242.257812 108.722656 C 238.757812 112.277344 230.558594 121.757812 217.664062 137.167969 L 214.621094 140.003906 C 213.257812 141.320312 210.835938 142.355469 207.347656 143.105469 C 206.820312 141.453125 207.855469 137.332031 210.460938 130.746094 C 211.386719 127.589844 217.234375 115.105469 227.996094 93.285156 C 228.859375 88.707031 228.125 85.628906 225.785156 84.046875 Z M 225.785156 84.046875 " fill-opacity="1" fill-rule="nonzero"/></g></g></g><g clip-path="url(#id4)"><g clip-path="url(#id5)"><g clip-path="url(#id6)"><path fill="#415d43" d="M 228.320312 83.066406 C 228.726562 83.199219 229.023438 83.5 229.214844 83.964844 C 229.914062 85.644531 229.84375 88.847656 229.007812 93.574219 L 229.003906 93.574219 C 228.304688 96.183594 227.222656 99.011719 225.757812 102.054688 L 225.753906 102.050781 C 216.914062 117.53125 212.03125 126.71875 211.109375 129.613281 C 209.074219 134.542969 208.664062 137.695312 209.875 139.0625 C 210.070312 139.285156 210.300781 139.464844 210.5625 139.601562 C 210.628906 139.632812 210.691406 139.664062 210.761719 139.691406 C 210.820312 139.71875 210.882812 139.742188 210.945312 139.761719 C 211.058594 139.796875 211.171875 139.828125 211.292969 139.847656 C 211.429688 139.886719 211.570312 139.914062 211.71875 139.925781 C 213.128906 140.050781 215.265625 138.746094 218.132812 136.003906 C 218.164062 135.976562 218.191406 135.945312 218.21875 135.914062 C 231.480469 120.410156 240.460938 111.132812 245.152344 108.09375 C 245.183594 108.074219 245.210938 108.050781 245.238281 108.03125 C 253.140625 101.863281 258.113281 99.117188 260.15625 99.78125 C 260.28125 99.824219 260.394531 99.878906 260.5 99.945312 L 260.496094 99.945312 C 261.527344 101.695312 260.742188 104.433594 258.136719 108.164062 L 258.136719 108.167969 C 255.226562 112.355469 245.058594 123.835938 227.625 142.601562 L 227.597656 142.628906 C 225.257812 145.320312 224.226562 147.628906 224.507812 149.558594 C 224.527344 149.6875 224.566406 149.816406 224.625 149.933594 C 225.015625 150.699219 225.609375 151.214844 226.414062 151.476562 C 227.9375 151.972656 230.210938 151.558594 233.230469 150.226562 C 233.265625 150.210938 233.300781 150.195312 233.335938 150.175781 C 254.320312 138.398438 267.214844 132.125 272.011719 131.363281 L 272.054688 131.355469 C 274.050781 130.964844 275.339844 130.863281 275.921875 131.054688 C 276.132812 131.121094 276.25 131.226562 276.28125 131.371094 C 276.414062 132.042969 275.722656 133.359375 274.210938 135.316406 C 272.125 137.914062 263.351562 144.558594 247.898438 155.246094 C 247.875 155.265625 247.851562 155.28125 247.828125 155.300781 C 244.132812 158.277344 241.351562 160.75 239.492188 162.722656 L 239.492188 162.71875 C 236.09375 165.050781 227.484375 177.644531 213.667969 200.511719 L 213.664062 200.511719 C 211.121094 204.109375 207.207031 207.644531 201.917969 211.109375 C 190.144531 217.769531 180.5 219.871094 172.992188 217.417969 C 168.902344 216.085938 165.445312 213.402344 162.617188 209.367188 C 162.460938 209.144531 162.242188 208.988281 162 208.910156 C 161.695312 208.808594 161.355469 208.832031 161.058594 208.988281 C 154.25 201.089844 146.277344 187.25 137.136719 167.464844 C 131.136719 152.621094 130.367188 142.609375 134.824219 137.429688 C 136.636719 135.320312 138.273438 134.5 139.726562 134.976562 C 139.949219 135.046875 140.167969 135.152344 140.382812 135.285156 C 141.445312 135.949219 142.570312 137.019531 143.757812 138.496094 L 143.753906 138.496094 L 155.753906 155.628906 C 155.804688 155.703125 155.863281 155.769531 155.929688 155.832031 C 156.699219 156.53125 157.464844 157.007812 158.230469 157.257812 C 160.039062 157.847656 161.839844 157.167969 163.621094 155.21875 C 163.632812 155.207031 163.640625 155.199219 163.652344 155.1875 C 164.765625 154.015625 165.875 151.332031 166.972656 147.132812 C 166.984375 147.089844 166.992188 147.046875 167 147.003906 C 170.605469 122.769531 174.746094 103.945312 179.425781 90.53125 C 183.527344 79.828125 187.800781 73.5625 192.25 71.730469 L 192.273438 71.722656 C 192.621094 71.570312 192.9375 71.542969 193.226562 71.636719 C 193.664062 71.78125 194.035156 72.203125 194.34375 72.910156 C 195.046875 74.515625 195.453125 77.214844 195.5625 81 L 189.558594 121.710938 L 189.554688 121.75 C 188.847656 128.027344 188.742188 131.765625 189.242188 132.96875 C 189.457031 133.480469 189.777344 133.804688 190.203125 133.945312 C 190.304688 133.976562 190.410156 134 190.519531 134.011719 C 190.800781 134.042969 191.070312 134 191.328125 133.878906 C 193.4375 133.863281 195.71875 131.800781 198.171875 127.695312 C 198.191406 127.667969 198.207031 127.636719 198.222656 127.609375 C 207.542969 108.550781 213.84375 96.75 217.132812 92.214844 C 220.335938 87.863281 223.445312 84.890625 226.460938 83.300781 C 227.226562 82.992188 227.847656 82.914062 228.320312 83.066406 Z M 229.179688 80.652344 C 228.183594 80.328125 226.957031 80.46875 225.492188 81.074219 C 225.457031 81.085938 225.425781 81.101562 225.394531 81.121094 C 222.027344 82.875 218.621094 86.09375 215.171875 90.773438 L 215.167969 90.78125 C 211.804688 95.425781 205.433594 107.335938 196.054688 126.511719 L 196.050781 126.507812 C 194.078125 129.800781 192.515625 131.449219 191.363281 131.453125 C 191.210938 130.09375 191.410156 126.964844 191.964844 122.066406 L 197.984375 81.242188 C 197.992188 81.175781 197.996094 81.105469 197.996094 81.035156 C 197.878906 76.882812 197.40625 73.851562 196.570312 71.941406 C 195.921875 70.457031 195.085938 69.546875 194.066406 69.214844 C 193.261719 68.949219 192.339844 69.042969 191.300781 69.496094 C 186.214844 71.601562 181.5 78.324219 177.15625 89.664062 L 177.144531 89.695312 C 172.414062 103.246094 168.230469 122.210938 164.605469 146.589844 C 163.617188 150.339844 162.714844 152.648438 161.890625 153.511719 L 161.867188 153.539062 C 161.855469 153.550781 161.839844 153.566406 161.828125 153.582031 C 160.796875 154.710938 159.773438 155.109375 158.765625 154.78125 C 158.398438 154.660156 158.03125 154.441406 157.664062 154.125 L 145.71875 137.066406 C 145.703125 137.042969 145.6875 137.023438 145.671875 137.003906 C 144.304688 135.296875 142.96875 134.039062 141.667969 133.226562 C 141.230469 132.953125 140.789062 132.746094 140.347656 132.601562 C 137.964844 131.824219 135.507812 132.90625 132.980469 135.847656 C 127.882812 141.773438 128.515625 152.621094 134.886719 168.386719 C 134.894531 168.402344 134.902344 168.421875 134.910156 168.441406 C 147.351562 195.367188 157.796875 211.554688 166.246094 217.003906 C 166.335938 217.0625 166.429688 217.105469 166.527344 217.140625 C 166.671875 217.183594 166.816406 217.203125 166.960938 217.195312 L 166.964844 217.199219 C 168.609375 218.332031 170.375 219.207031 172.253906 219.820312 C 180.378906 222.472656 190.6875 220.261719 203.171875 213.191406 C 203.191406 213.179688 203.214844 213.164062 203.238281 213.152344 C 208.820312 209.492188 212.972656 205.726562 215.691406 201.851562 C 215.707031 201.828125 215.722656 201.804688 215.738281 201.78125 C 229.570312 178.890625 237.96875 166.523438 240.929688 164.679688 C 241.019531 164.625 241.101562 164.558594 241.171875 164.480469 C 242.945312 162.585938 245.65625 160.171875 249.300781 157.230469 C 264.96875 146.394531 273.90625 139.585938 276.121094 136.816406 L 276.132812 136.800781 C 278.09375 134.265625 278.9375 132.296875 278.664062 130.902344 C 278.464844 129.902344 277.839844 129.230469 276.785156 128.886719 C 275.597656 128.496094 273.863281 128.527344 271.585938 128.972656 C 266.472656 129.8125 253.339844 136.164062 232.183594 148.035156 L 232.179688 148.035156 C 229.738281 149.105469 228.113281 149.507812 227.296875 149.242188 C 227.125 149.1875 226.992188 149.101562 226.890625 148.988281 L 226.890625 148.984375 C 226.84375 147.816406 227.683594 146.238281 229.40625 144.253906 L 229.40625 144.25 C 246.914062 125.40625 257.152344 113.839844 260.128906 109.554688 C 263.449219 104.796875 264.210938 101.089844 262.410156 98.425781 C 262.347656 98.332031 262.269531 98.246094 262.179688 98.171875 C 261.882812 97.925781 261.539062 97.738281 261.152344 97.609375 C 258.097656 96.613281 252.300781 99.441406 243.769531 106.097656 L 243.769531 106.09375 C 238.867188 109.300781 229.746094 118.703125 216.398438 134.300781 C 214.105469 136.488281 212.621094 137.554688 211.945312 137.511719 L 211.941406 137.507812 C 211.878906 137.488281 211.816406 137.476562 211.753906 137.464844 C 211.730469 137.460938 211.710938 137.457031 211.699219 137.453125 C 211.695312 137.453125 211.695312 137.453125 211.691406 137.453125 C 211.152344 136.824219 211.714844 134.496094 213.378906 130.472656 C 213.394531 130.441406 213.40625 130.40625 213.417969 130.371094 C 214.257812 127.683594 219.085938 118.625 227.898438 103.199219 C 227.914062 103.175781 227.925781 103.148438 227.9375 103.125 C 229.484375 99.910156 230.628906 96.914062 231.371094 94.132812 C 231.378906 94.101562 231.386719 94.066406 231.394531 94.03125 C 232.316406 88.824219 232.339844 85.160156 231.460938 83.039062 C 230.9375 81.777344 230.175781 80.980469 229.179688 80.652344 Z M 229.179688 80.652344 " fill-opacity="1" fill-rule="nonzero"/></g></g></g><g clip-path="url(#id7)"><g clip-path="url(#id8)"><g clip-path="url(#id9)"><path fill="#415d43" d="M 182.65625 121.523438 C 182.734375 120.769531 182.871094 119.988281 182.949219 119.242188 C 182.796875 120.070312 183.402344 120.265625 182.65625 121.523438 Z M 153.296875 142.59375 C 152.902344 142.542969 152.511719 142.445312 152.117188 142.398438 C 152.53125 142.507812 152.875 141.972656 153.296875 142.59375 Z M 175.0625 150.019531 C 175.238281 149.570312 175.410156 149.121094 175.585938 148.667969 C 175.34375 149.296875 175.210938 149.632812 175.0625 150.019531 Z M 172.367188 141.113281 C 172.324219 141.085938 172.273438 141.066406 172.195312 141.058594 C 172.261719 140.902344 172.3125 140.75 172.359375 140.601562 C 172.363281 140.773438 172.363281 140.941406 172.367188 141.113281 Z M 172.375 141.691406 C 172.222656 141.976562 172.230469 142.230469 172.285156 142.480469 C 172.09375 142.316406 172.253906 141.976562 172.375 141.667969 C 172.375 141.675781 172.375 141.683594 172.375 141.691406 Z M 172.382812 144.292969 C 172.453125 144.0625 172.507812 143.828125 172.546875 143.585938 C 172.558594 143.800781 172.507812 144.035156 172.382812 144.292969 Z M 218.042969 26.441406 C 217.582031 26.53125 217.15625 26.632812 216.714844 26.671875 C 216.925781 25.476562 215.511719 25.28125 214.769531 25.867188 C 214.542969 26.667969 214.28125 27.453125 214.054688 28.253906 C 213.511719 29.316406 212.753906 30.0625 212.410156 31.375 C 212.558594 31.769531 212.664062 32.152344 212.789062 32.59375 C 212.269531 33.273438 211.460938 33.496094 211.105469 34.300781 C 210.617188 35.328125 210.113281 36.40625 209.664062 37.449219 C 208.554688 38.332031 208.695312 39.730469 208.316406 40.914062 C 208.019531 41.128906 207.703125 41.390625 207.410156 41.601562 C 207.164062 42.226562 206.921875 42.851562 206.675781 43.480469 C 206.621094 43.625 206.566406 43.765625 206.507812 43.914062 C 206.375 44.472656 206.222656 45.082031 206.054688 45.625 C 205.761719 45.503906 205.46875 45.382812 204.664062 44.488281 C 204.589844 44.460938 204.554688 44.441406 204.480469 44.414062 C 204.300781 43.78125 204.949219 43.320312 204.488281 42.851562 C 203.960938 42.128906 203.253906 43.402344 202.285156 42.164062 C 203.585938 40.464844 203.375 38.589844 204.347656 36.867188 C 204.257812 36.550781 204.203125 36.25 204.09375 35.980469 C 203.726562 35.828125 203.398438 35.691406 203.03125 35.539062 C 203.269531 35.246094 203.753906 34.664062 203.296875 34.308594 C 203.535156 33.902344 203.703125 33.582031 203.929688 33.226562 C 204.464844 33.058594 204.960938 33.320312 205.554688 32.78125 C 206.667969 31.34375 205.136719 31.546875 204.738281 30.601562 C 205.34375 30.792969 205.707031 29.324219 205.46875 28.722656 C 205.527344 28.578125 205.582031 28.433594 205.636719 28.289062 C 206.007812 27.882812 206.359375 27.527344 206.730469 27.121094 C 206.882812 26.734375 207.03125 26.351562 207.179688 25.964844 C 207.359375 24.082031 208.835938 26.207031 208.597656 23.308594 C 208.324219 23.03125 208.015625 22.734375 207.703125 22.4375 C 207.796875 22.195312 207.890625 21.957031 207.984375 21.714844 C 208.082031 21.027344 208.125 20.375 208.183594 19.671875 C 208.484375 18.34375 209.746094 16.964844 208.925781 15.675781 C 208.238281 16.902344 207.546875 18.121094 206.835938 19.394531 C 206.726562 19.683594 206.59375 20.019531 206.484375 20.308594 C 204.933594 23.414062 203.382812 26.515625 201.816406 29.667969 C 200.824219 29.257812 200.816406 30.484375 200.957031 31.4375 C 200.320312 33.074219 199.703125 34.664062 199.066406 36.300781 C 198.21875 36.285156 197.714844 37.027344 197.277344 36.621094 C 197.03125 37.136719 197.085938 37.660156 197.101562 38.171875 C 195.832031 38.035156 196.296875 39.792969 195.921875 40.644531 C 195.644531 41.144531 195.402344 41.65625 195.121094 42.15625 C 194.953125 42.257812 194.789062 42.355469 194.601562 42.503906 C 194.25 42.96875 193.933594 43.457031 193.617188 43.9375 C 193.519531 44.734375 193.441406 45.488281 193.308594 46.269531 C 191.40625 46.992188 192.71875 49.210938 191.96875 50.800781 C 191.636719 51.113281 191.328125 50.703125 190.992188 50.679688 C 190.265625 52.332031 190.695312 54.078125 189.710938 55.511719 C 189.828125 57.070312 188.898438 58.585938 188.09375 60.210938 C 188.40625 60.507812 188.679688 60.789062 188.992188 61.085938 C 188.878906 61.375 188.746094 61.710938 188.636719 62 C 188.046875 61.980469 187.785156 62.320312 187.566406 62.117188 C 187.359375 62.644531 187.152344 63.175781 186.929688 63.753906 C 186.425781 64.382812 185.410156 65.136719 185.664062 65.910156 C 186.265625 66.664062 184.914062 67.726562 185.664062 68.539062 C 185.589844 68.730469 185.53125 68.878906 185.476562 69.019531 C 184.109375 69.574219 184.386719 71.925781 183.003906 72.300781 C 182.707031 72.625 181.589844 74.175781 182.71875 74.027344 C 182.351562 75.945312 181.664062 77.058594 181.007812 78.96875 C 181.484375 79.386719 180.832031 80.292969 180.460938 80.917969 C 180.101562 82.390625 179.570312 84.410156 178.308594 85.898438 C 178.726562 86.910156 178.652344 87.214844 177.675781 86.980469 C 177.703125 88.21875 177.796875 88.425781 177.238281 89.199219 C 177.25 89.933594 176.820312 91.039062 176.339844 91.511719 C 177.292969 92.019531 175.980469 92.984375 175.695312 93.707031 C 175.328125 93.886719 174.976562 94.132812 174.605469 94.316406 C 174.195312 95.148438 175.542969 94.871094 174.890625 95.773438 C 174.78125 96.175781 174.703125 96.589844 174.589844 96.992188 C 174.660156 97.46875 174.433594 97.933594 173.453125 98.925781 C 173.339844 99.214844 173.210938 99.550781 173.097656 99.839844 C 172.648438 100.550781 172.238281 101.273438 171.828125 102 C 171.828125 102.222656 171.808594 102.382812 171.828125 102.554688 C 170.964844 104.4375 170.109375 106.316406 169.210938 108.179688 C 169.042969 108.617188 168.855469 109.09375 168.667969 109.578125 C 168.496094 110.234375 167.996094 110.863281 168.136719 111.480469 C 168.042969 112.058594 167.929688 112.683594 167.867188 113.269531 C 167.515625 113.628906 167.328125 114.109375 167.160156 114.542969 C 167.15625 115.101562 167.152344 115.65625 167.132812 116.152344 C 166.757812 117.003906 166.367188 117.792969 165.992188 118.640625 C 165.46875 119.769531 164.945312 120.894531 164.457031 122.035156 C 164.605469 122.207031 164.734375 122.316406 164.878906 122.488281 C 164.085938 122.996094 163.558594 124.34375 164.070312 125.113281 C 163.957031 125.515625 163.878906 125.929688 163.800781 126.347656 C 163.390625 127.40625 162.976562 128.464844 162.546875 129.570312 C 162.003906 130.964844 161.480469 132.316406 160.9375 133.710938 C 160.359375 134.757812 160.351562 135.761719 160.101562 137.390625 C 160.023438 137.804688 159.910156 138.207031 159.835938 138.621094 C 159.648438 139.101562 159.480469 139.535156 159.292969 140.019531 C 159.101562 140.835938 158.914062 141.648438 158.761719 142.484375 C 158.671875 142.714844 158.582031 142.953125 158.503906 143.195312 C 158.300781 143.042969 158.105469 142.898438 157.902344 142.738281 C 157.714844 142.351562 157.433594 142.140625 156.734375 142.308594 C 156.59375 142.199219 156.476562 142.109375 156.335938 142.003906 C 156.296875 141.625 155.734375 141.199219 155.179688 141.378906 C 154.652344 141.128906 154.144531 140.890625 153.59375 140.675781 C 153.714844 139.972656 152.902344 139.605469 152.253906 139.660156 C 152.007812 139.527344 151.742188 139.425781 151.5 139.289062 C 150.847656 137.902344 149.242188 138.277344 148.292969 137.359375 C 147.597656 137.433594 147.246094 136.320312 146.535156 136.726562 C 145.542969 136.175781 144.714844 134.953125 143.605469 135.007812 C 143.40625 134.808594 143.011719 134.757812 143.054688 134.347656 C 140.519531 133.820312 139.175781 131.710938 136.859375 130.605469 C 136.777344 130.640625 136.710938 130.6875 136.648438 130.691406 C 136.511719 130.535156 136.175781 130.535156 136.28125 130.167969 C 135.09375 129.019531 133.449219 127.472656 131.84375 127.058594 C 130.757812 126.335938 130.273438 124.925781 128.355469 124.914062 C 128.253906 124.839844 128.152344 124.765625 128.074219 124.703125 C 127.949219 124.359375 127.839844 124.027344 127.734375 123.699219 C 127.535156 123.546875 127.355469 123.410156 127.152344 123.261719 C 127.523438 122.644531 127.171875 122.625 126.574219 122.824219 C 126.027344 122.507812 125.460938 122.179688 124.9375 121.832031 C 124.738281 121.679688 124.539062 121.53125 124.359375 121.394531 C 123.480469 120.679688 122.625 119.933594 121.769531 119.1875 C 121.183594 118.84375 120.597656 118.5 120.035156 118.125 C 120.109375 117.929688 120.160156 117.769531 120.253906 117.589844 C 120.03125 117.472656 119.804688 117.402344 119.558594 117.316406 C 119.378906 117.179688 119.179688 117.027344 118.980469 116.875 C 119.046875 116.429688 118.886719 116.308594 118.726562 116.1875 C 118.417969 116.453125 118.113281 116.671875 117.789062 116.921875 C 117.566406 116.753906 117.328125 116.574219 117.105469 116.40625 C 116.832031 116.097656 116.535156 115.824219 116.261719 115.515625 C 116.199219 115.46875 116.140625 115.425781 116.082031 115.378906 C 115.882812 115.179688 115.6875 114.933594 115.511719 114.703125 C 115.109375 114.492188 114.722656 114.300781 114.339844 114.0625 C 113.980469 113.742188 113.519531 113.441406 113.148438 114.105469 C 113.019531 114.507812 112.914062 114.875 112.769531 115.261719 C 112.171875 115.109375 111.519531 116.355469 111.566406 116.988281 C 111.929688 117.167969 112.273438 117.375 112.640625 117.550781 C 113.03125 118 113.160156 118.644531 113.773438 118.910156 C 114.050781 118.769531 114.308594 118.667969 114.605469 118.546875 C 114.792969 118.984375 114.605469 119.6875 114.921875 119.976562 C 115.316406 120.375 115.734375 120.789062 116.148438 121.15625 C 116.222656 122.105469 117.066406 121.945312 117.589844 122.246094 C 117.597656 122.5 117.625 122.769531 117.628906 123.023438 C 117.890625 123.21875 118.152344 123.414062 118.414062 123.613281 C 118.472656 123.660156 118.53125 123.703125 118.589844 123.746094 C 118.855469 123.847656 119.140625 123.96875 119.386719 124.101562 C 119.203125 124.359375 119.023438 124.621094 118.210938 125.347656 C 118.164062 125.414062 118.140625 125.449219 118.097656 125.511719 C 117.667969 125.6875 117.660156 125.132812 117.21875 125.546875 C 116.605469 126.027344 117.050781 126.613281 115.980469 127.496094 C 115.519531 126.402344 114.382812 126.632812 113.78125 125.828125 C 113.566406 125.917969 113.375 125.972656 113.179688 126.074219 C 112.953125 126.398438 112.75 126.691406 112.523438 127.019531 C 112.449219 126.816406 112.304688 126.40625 111.929688 126.816406 C 111.792969 126.617188 111.675781 126.476562 111.5625 126.292969 C 111.671875 125.828125 112.007812 125.386719 111.933594 124.878906 C 111.550781 123.941406 111.078125 125.277344 110.386719 125.652344 C 110.730469 125.117188 110.035156 124.839844 109.605469 125.0625 C 109.546875 125.015625 109.488281 124.96875 109.425781 124.925781 C 109.339844 124.613281 109.273438 124.3125 109.1875 123.996094 C 109.027344 123.878906 108.867188 123.757812 108.707031 123.632812 C 107.710938 123.527344 109.476562 122.179688 107.75 122.460938 C 107.484375 122.710938 107.199219 122.988281 106.910156 123.269531 C 106.8125 123.195312 106.710938 123.121094 106.613281 123.042969 C 106.261719 122.976562 105.90625 122.957031 105.53125 122.925781 C 104.898438 122.695312 104.605469 121.625 103.558594 122.378906 C 103.988281 122.949219 104.414062 123.523438 104.859375 124.109375 C 104.980469 124.199219 105.121094 124.304688 105.242188 124.394531 C 106.398438 125.671875 107.558594 126.945312 108.738281 128.234375 C 108.125 129.117188 108.816406 129.089844 109.410156 128.941406 C 110.089844 129.457031 110.75 129.957031 111.429688 130.472656 C 111.097656 131.214844 111.324219 131.632812 110.925781 132.03125 C 111.121094 132.230469 111.4375 132.171875 111.734375 132.144531 C 111.167969 133.257812 112.339844 132.804688 112.679688 133.109375 C 112.855469 133.339844 113.050781 133.539062 113.226562 133.773438 C 113.21875 133.914062 113.210938 134.058594 113.222656 134.214844 C 113.351562 134.511719 113.503906 134.777344 113.65625 135.042969 C 114.070312 135.105469 114.460938 135.15625 114.855469 135.253906 C 114.53125 136.898438 116.289062 135.691406 116.902344 136.304688 C 116.949219 136.589844 116.597656 136.871094 116.457031 137.164062 C 117.113281 137.757812 118.261719 137.332031 118.695312 138.15625 C 119.621094 138.015625 120.121094 138.789062 120.730469 139.449219 C 121.019531 139.167969 121.28125 138.921875 121.570312 138.640625 C 121.691406 138.734375 121.832031 138.839844 121.949219 138.929688 C 121.710938 139.445312 121.804688 139.664062 121.605469 139.863281 C 121.824219 140.03125 122.046875 140.195312 122.285156 140.375 C 122.449219 140.800781 122.484375 141.671875 123.019531 141.429688 C 123.675781 140.882812 123.757812 142.039062 124.503906 141.359375 C 124.585938 141.417969 124.644531 141.464844 124.707031 141.511719 C 124.492188 142.695312 125.929688 142.386719 125.609375 143.589844 C 125.679688 143.839844 126.128906 144.777344 126.476562 143.796875 C 127.421875 144.0625 127.785156 144.636719 128.609375 145.160156 C 129.03125 144.734375 129.292969 145.28125 129.503906 145.589844 C 130.199219 145.867188 131.132812 146.277344 131.492188 147.34375 C 132.222656 146.953125 132.367188 147.007812 131.859375 147.867188 C 132.570312 147.8125 132.722656 147.726562 132.945312 148.191406 C 133.367188 148.160156 133.824219 148.511719 133.90625 148.921875 C 134.5625 148.070312 134.601562 149.195312 134.902344 149.425781 C 134.863281 149.742188 134.867188 150.042969 134.828125 150.363281 C 135.140625 150.703125 135.5 149.53125 135.761719 150.074219 C 135.945312 150.164062 136.148438 150.21875 136.332031 150.308594 C 136.628906 150.234375 136.808594 150.417969 136.988281 151.253906 C 137.109375 151.34375 137.25 151.449219 137.371094 151.539062 C 137.597656 151.914062 137.851562 152.253906 138.101562 152.59375 C 138.230469 152.589844 138.3125 152.601562 138.417969 152.582031 C 139.148438 153.285156 139.882812 153.988281 140.589844 154.722656 C 140.773438 154.863281 140.972656 155.011719 141.171875 155.164062 C 141.476562 155.292969 141.640625 155.71875 142.046875 155.574219 C 142.335938 155.644531 142.644531 155.726562 142.953125 155.765625 C 143.019531 156.066406 143.222656 156.214844 143.398438 156.351562 C 143.714844 156.339844 144.027344 156.328125 144.300781 156.335938 C 144.636719 156.640625 144.933594 156.960938 145.269531 157.269531 C 145.703125 157.695312 146.140625 158.125 146.597656 158.523438 C 146.75 158.386719 146.859375 158.273438 147.015625 158.140625 C 146.996094 158.824219 147.558594 159.246094 148.1875 158.78125 C 148.371094 158.871094 148.578125 158.925781 148.78125 158.980469 C 149.222656 159.316406 149.664062 159.648438 150.125 159.996094 C 150.703125 160.433594 151.265625 160.859375 151.84375 161.296875 C 152.214844 161.777344 152.777344 161.753906 153.605469 161.929688 C 153.808594 161.988281 153.992188 162.078125 154.199219 162.132812 C 154.398438 162.285156 154.578125 162.417969 154.777344 162.570312 C 155.167969 162.714844 155.554688 162.859375 155.964844 162.972656 C 156.246094 163.183594 156.546875 163.410156 157.03125 163.328125 C 157.460938 163.503906 157.867188 163.664062 158.316406 163.808594 C 158.679688 164.078125 159.019531 164.335938 159.378906 164.609375 C 159.664062 164.773438 159.949219 165.242188 160.253906 165.023438 C 160.542969 165.089844 160.847656 165.175781 161.136719 165.242188 C 161.328125 165.234375 161.535156 165.246094 161.746094 165.203125 C 161.859375 165.117188 161.96875 165.035156 162.078125 164.949219 C 162.332031 165.175781 162.582031 165.40625 162.839844 165.640625 C 162.753906 167.28125 164.414062 167.296875 165.761719 166.570312 C 166.121094 168.285156 167.191406 167.273438 168.207031 167.082031 C 168.574219 167.234375 168.90625 167.371094 169.273438 167.523438 C 169.367188 167.28125 169.460938 167.039062 169.554688 166.800781 C 169.882812 166.9375 170.253906 167.089844 170.617188 167.242188 C 171.042969 167.027344 171.765625 166.597656 172.375 166.347656 C 172.484375 166.394531 172.59375 166.441406 172.742188 166.5 C 173.441406 166.679688 173.601562 164.398438 174.851562 164.691406 C 174.578125 164.410156 174.269531 164.113281 173.992188 163.832031 C 175.230469 163.0625 176.042969 163.171875 176.707031 162.550781 C 176.585938 161.996094 176.496094 161.570312 176.054688 161.164062 C 176.207031 160.78125 175.632812 160.824219 175.175781 160.800781 C 174.992188 160.277344 174.867188 159.832031 174.742188 159.277344 C 175.460938 158.960938 175.757812 159.082031 175.964844 158.21875 C 175.066406 157.789062 176.105469 156.210938 175.710938 155.148438 C 176.066406 154.234375 177.363281 152.871094 176.003906 152.308594 C 176.953125 151.082031 177.40625 149.367188 177.175781 148.210938 C 177.492188 147.613281 177.972656 147.367188 178.160156 146.773438 C 178.332031 146.007812 178.484375 145.285156 178.597656 144.550781 C 179.347656 142.738281 178.855469 141.695312 179.4375 140.316406 C 179.589844 139.59375 179.757812 138.828125 179.910156 138.109375 C 180.007812 137.421875 180.140625 136.75 180.273438 136.078125 C 180.722656 135.480469 180.984375 134.804688 180.808594 133.613281 C 181.03125 133.035156 181.277344 132.410156 181.519531 131.785156 C 181.761719 131.160156 181.988281 130.582031 182.230469 129.957031 C 182.695312 129.308594 182.957031 128.636719 182.800781 127.507812 C 182.933594 127.167969 183.042969 126.882812 183.175781 126.546875 C 183.621094 126.171875 184.144531 124.824219 183.964844 123.964844 C 184.285156 122.8125 184.589844 121.707031 184.871094 120.539062 C 185.683594 120.207031 186.15625 118.445312 186.128906 117.316406 C 186.296875 116.769531 186.429688 116.210938 186.601562 115.664062 C 188.253906 113.386719 187.902344 110.78125 189.027344 108.339844 C 188.976562 107.144531 190.292969 105.625 189.859375 104.660156 C 190.554688 102.433594 192.027344 99.96875 192.023438 98.007812 C 192.265625 97.492188 192.34375 96.742188 192.824219 96.496094 C 193.574219 91.496094 196.105469 87.402344 197.523438 82.34375 C 197.488281 82.214844 197.433594 82.136719 197.433594 82.027344 C 197.621094 81.65625 197.640625 81.050781 198.066406 80.945312 C 199.464844 77.894531 201.355469 73.699219 201.929688 70.46875 C 202.832031 67.9375 204.5 65.945312 204.617188 62.472656 C 204.710938 62.230469 204.804688 61.992188 204.878906 61.796875 C 205.289062 61.296875 205.679688 60.84375 206.066406 60.390625 C 206.253906 59.90625 206.421875 59.476562 206.609375 58.992188 C 207.308594 59.171875 207.351562 58.519531 207.152344 57.597656 C 207.546875 56.363281 207.964844 55.078125 208.394531 53.863281 C 208.582031 53.378906 208.769531 52.898438 208.9375 52.464844 C 209.816406 50.3125 210.734375 48.179688 211.652344 46.042969 C 212.082031 44.714844 212.515625 43.382812 212.984375 42.066406 C 213.207031 42.046875 213.390625 42.011719 213.59375 42.039062 C 213.742188 41.542969 213.839844 41.078125 213.953125 40.566406 C 214.121094 40.136719 214.308594 39.652344 214.496094 39.171875 C 215.015625 38.9375 215.164062 38.550781 215.3125 38.167969 C 215.019531 37.824219 214.785156 37.445312 214.511719 37.054688 C 214.714844 36.523438 214.941406 35.945312 215.144531 35.417969 C 215.519531 34.675781 215.855469 33.921875 216.230469 33.183594 C 216.285156 33.039062 216.339844 32.890625 216.398438 32.75 C 216.640625 32.234375 216.941406 31.6875 217.21875 31.1875 C 217.484375 30.289062 217.730469 29.441406 218.03125 28.558594 C 218.421875 27.660156 218.800781 26.585938 218.042969 26.441406 " fill-opacity="1" fill-rule="nonzero"/></g></g></g></svg>